<svg xmlns="http://www.w3.org/2000/svg" viewBox="0 0 378.39 393.31"><defs><style>.a{fill:none;stroke:#000;stroke-linecap:round;stroke-linejoin:round;stroke-width:16px;}</style></defs><path class="a" d="M378.74,159V376.89c-.72,25.9-16,25.47-16,25.47H90.35c-11.89,0-23.81.45-35.69.23-8.3-.16-17.11-2-23-7.81-6.12-6-4.73-13.94-4.64-21.7l.19-15.87.53-44.62.67-55.6.7-59.15.66-55.26.52-43.93.3-25.15,0-3.23s1.89-16,15.09-17.92H239.11m7.63,117L376.43,39.66l5.31-5.31s6-5-18-6l-48-3m73,78,.46-55c-3.46-20.95-7.46-13.95-7.46-13.95" transform="translate(-18.8 -17.35)"/></svg>